<?xml version="1.0" encoding="UTF-8"?>
<!DOCTYPE svg PUBLIC "-//W3C//DTD SVG 1.1//EN" "http://www.w3.org/Graphics/SVG/1.1/DTD/svg11.dtd">
<!-- Creator: CorelDRAW 2019 (64 Bit Versão de avaliação) -->
<svg xmlns="http://www.w3.org/2000/svg" xml:space="preserve" width="68.1869mm" height="68.2275mm" version="1.1" style="shape-rendering:geometricPrecision; text-rendering:geometricPrecision; image-rendering:optimizeQuality; fill-rule:evenodd; clip-rule:evenodd"
viewBox="0 0 6818.68 6822.74"
 xmlns:xlink="http://www.w3.org/1999/xlink">
 <defs>
  <style type="text/css">
   <![CDATA[
    .fil0 {fill:#00CC61;fill-rule:nonzero}
    .fil1 {fill:#EFEFEF;fill-rule:nonzero}
   ]]>
  </style>
 </defs>
 <g id="Camada_x0020_1">
  <metadata id="CorelCorpID_0Corel-Layer"/>
  <path class="fil0" d="M5067.24 1951.11c228.07,259.15 387.99,583.74 474.38,928.93 42.76,170.85 65.79,349.46 65.79,533.36 0,223 -33.62,438.26 -95.67,641.21l460.94 807.05 634.12 -265.36c136.84,-368.68 211.88,-767.15 211.88,-1182.9 0,-328.93 -46.96,-647.06 -134.31,-948.19 -135.71,-468.1 -367.98,-918.39 -675.74,-1280.37l-87.56 744.36 -853.83 21.91z"/>
  <path class="fil0" d="M3381.48 1184.85c5.33,0.07 0,21.91 0,21.91 378.64,8.36 777.98,51.22 1085.6,227.47 225.57,129.25 434.03,319.44 600.19,516.89l857.77 -14.04 105.52 -730.32c-270.62,-332.99 -609.42,-625.2 -986.19,-837.22 -471.73,-265.46 -1056.99,-356.62 -1634.91,-369.43 -32.14,-0.7 -61.7,2.3 -93.67,2.51l481.65 547.33 -415.96 634.9z"/>
  <path class="fil1" d="M5972.66 4861.65l-460.9 -807.05c-262.29,858.23 -1036.67,1494.72 -1965.43,1552.15 -45.33,2.82 -90.95,4.69 -136.99,4.69 -363.04,0 -705.48,-89.01 -1007.56,-245.5 -240.03,-124.39 -453.5,-292.45 -631.94,-492.44 -346.67,-388.48 -558.58,-899.62 -558.58,-1460.11 0,-293.62 57.92,-573.97 162.84,-830.23 315.28,-769.97 1055.37,-1322.67 1927.22,-1365.07 30.52,-1.48 61.28,-2.08 92.08,-2.33l496.07 -616.34 -576.19 -593.69c-3.98,0.11 -7.97,0.07 -11.96,0.21 -1475.07,46.15 -2716.39,1033.99 -3142.75,2380.86 -102.59,324.17 -158.58,668.91 -158.58,1026.59 0,916.34 363.58,1749.21 953.84,2362.37 235.31,244.44 506.49,454.1 805.18,620.05 489.31,271.81 1052.02,426.93 1650.33,426.93 72.5,0 144.29,-3.04 215.73,-7.55 1370.33,-86.04 2523.63,-984.64 2981.71,-2218.87l-634.12 265.33z"/>
  <path class="fil1" d="M4324.07 2719.54c13.89,36.72 9.38,73.66 3.49,111.33 -54.86,350.81 -109.05,701.71 -163.51,1052.59 -10.02,64.59 -50.24,111.33 -107.85,110.59 -52.74,-0.7 -106.68,-9.56 -157.55,-23.88 -49.81,-14.04 -77.12,-65.16 -74.19,-117.58 0.53,-9.95 1.91,-19.86 3.42,-29.71 30.52,-198.72 61.14,-397.43 91.83,-596.15 1.2,-7.7 3.63,-15.21 5.5,-22.79 -1.69,-1.17 -3.35,-2.3 -5.04,-3.43 -5.86,4.31 -11.75,8.61 -17.6,12.88 -383.79,280.81 -767.61,561.62 -1151.4,842.47 -66.08,48.33 -135.82,37.78 -184.22,-28.15 -15.59,-21.28 -31.26,-42.51 -46.71,-63.89 -46.21,-64.07 -35.06,-137.16 28.61,-183.83 207.05,-151.7 414.27,-303.18 621.42,-454.73l531.67 -389.01c6.32,-4.62 12.63,-9.24 23.39,-17.11 -11.68,-2.12 -19.37,-3.74 -27.09,-4.91 -204.37,-31.36 -408.77,-62.58 -613.13,-94.08 -63.08,-9.74 -107.49,-48.44 -106.75,-106.15 0.7,-53.41 9.95,-108.02 24.55,-159.53 13.51,-47.73 64.74,-74.54 114.8,-71.72 10.61,0.6 21.23,2.19 31.82,3.81 348.05,53.91 696.1,108.02 1044.22,161.5 37.68,5.79 74.22,12.7 105.06,36.94 8.43,11.5 16.82,23.04 25.26,34.54z"/>
 </g>
</svg>
